<svg width="172" height="95" viewBox="0 0 172 95" fill="none" xmlns="http://www.w3.org/2000/svg">
<rect width="172" height="95" fill="white"/>
<g clip-path="url(#clip0)">
<path d="M82.7159 68.8027L80.2993 70.3444V69.3392L83.1478 67.8552H83.7374V72.8471H82.7159V68.8027Z" fill="#010202" stroke="#010202" stroke-width="0.25" stroke-miterlimit="10"/>
<path d="M88.6184 68.7005H84.3713V67.8516H90.0341V68.2726L86.5994 72.8434H85.2763L88.6184 68.7005Z" fill="#010202" stroke="#010202" stroke-width="0.25" stroke-miterlimit="10"/>
<path d="M94.1164 70.6838V71.1457H92.3374V70.6838H94.1164Z" fill="#010202" stroke="#010202" stroke-width="0.25" stroke-miterlimit="10"/>
<path d="M96.0327 72.2526C96.0979 70.3475 100.328 70.3713 100.328 69.3729C100.328 68.816 99.8307 68.6021 98.5487 68.6021C97.5478 68.6021 96.5846 68.85 96.1801 69.0435V68.1538C96.7114 67.9127 97.7055 67.7463 98.7407 67.7463C100.475 67.7463 101.39 68.1538 101.39 69.1794C101.39 71.1897 97.5478 70.969 97.0953 71.9877H101.284V72.8434H96.0293V72.2526H96.0327Z" fill="#010202" stroke="#010202" stroke-width="0.25" stroke-miterlimit="10"/>
<path d="M101.922 70.2626C101.922 68.6598 103.125 67.7463 105.082 67.7463C105.967 67.7463 106.58 67.8958 107.118 68.1606V69.1013C106.522 68.7719 105.881 68.6021 105.003 68.6021C103.715 68.6021 102.947 69.2065 102.947 70.3204C103.667 69.7227 104.602 69.5631 105.213 69.5631C106.803 69.5631 107.509 70.2898 107.509 71.261C107.509 72.2662 106.553 72.9283 104.877 72.9283C103.108 72.9283 101.922 72.0794 101.922 70.2626ZM106.477 71.2033C106.477 70.6328 105.994 70.3271 105.031 70.3271C104.362 70.3271 103.454 70.6124 103.053 71.0606C103.248 71.6889 103.889 72.0726 104.808 72.0726C105.83 72.0726 106.477 71.7602 106.477 71.2033Z" fill="#010202" stroke="#010202" stroke-width="0.25" stroke-miterlimit="10"/>
<path d="M110.201 70.4256H111.229C111.229 71.6175 111.681 72.0997 112.669 72.0997C113.649 72.0997 114.108 71.6141 114.108 70.4256V68.7005H110.869V67.8516H115.13V70.4256C115.13 72.2797 114.143 72.9555 112.669 72.9555C111.184 72.9589 110.201 72.2797 110.201 70.4256Z" fill="#010202" stroke="#010202" stroke-width="0.25" stroke-miterlimit="10"/>
<path d="M116.216 70.1913V67.8516H117.238V70.4052C117.238 71.5462 117.748 72.0895 118.855 72.0895C119.956 72.0895 120.473 71.5462 120.473 70.4052V67.8516H121.495V70.1913C121.495 72.317 120.501 72.9589 118.852 72.9589C117.21 72.9589 116.216 72.317 116.216 70.1913Z" fill="#010202" stroke="#010202" stroke-width="0.25" stroke-miterlimit="10"/>
<path d="M122.41 67.8516H123.431V71.9877H126.945V72.8434H122.41V67.8516Z" fill="#010202" stroke="#010202" stroke-width="0.25" stroke-miterlimit="10"/>
<path d="M127.384 67.8516H128.405V72.8434H127.384V67.8516Z" fill="#010202" stroke="#010202" stroke-width="0.25" stroke-miterlimit="10"/>
<path d="M131.363 72.2526C131.428 70.3475 135.662 70.3713 135.662 69.3729C135.662 68.816 135.165 68.6021 133.883 68.6021C132.882 68.6021 131.919 68.85 131.514 69.0435V68.1538C132.045 67.9127 133.039 67.7463 134.075 67.7463C135.809 67.7463 136.724 68.1538 136.724 69.1794C136.724 71.1897 132.882 70.969 132.426 71.9877H136.615V72.8434H131.36V72.2526H131.363Z" fill="#010202" stroke="#010202" stroke-width="0.25" stroke-miterlimit="10"/>
<path d="M137.108 70.3475C137.108 68.7786 138.325 67.7395 140.289 67.7395C142.26 67.7395 143.477 68.782 143.477 70.3475C143.477 71.913 142.26 72.9555 140.289 72.9555C138.322 72.9589 137.108 71.9163 137.108 70.3475ZM142.456 70.3475C142.456 69.2438 141.605 68.5851 140.289 68.5851C138.98 68.5851 138.13 69.2405 138.13 70.3475C138.13 71.4545 138.98 72.1031 140.289 72.1031C141.605 72.1031 142.456 71.4545 142.456 70.3475Z" fill="#010202" stroke="#010202" stroke-width="0.25" stroke-miterlimit="10"/>
<path d="M143.707 72.2526C143.772 70.3475 148.002 70.3713 148.002 69.3729C148.002 68.816 147.505 68.6021 146.223 68.6021C145.222 68.6021 144.259 68.85 143.855 69.0435V68.1538C144.386 67.9127 145.38 67.7463 146.415 67.7463C148.15 67.7463 149.065 68.1538 149.065 69.1794C149.065 71.1897 145.222 70.969 144.77 71.9877H148.959V72.8434H143.704V72.2526H143.707Z" fill="#010202" stroke="#010202" stroke-width="0.25" stroke-miterlimit="10"/>
<path d="M149.452 70.3475C149.452 68.7786 150.669 67.7395 152.633 67.7395C154.604 67.7395 155.821 68.782 155.821 70.3475C155.821 71.913 154.604 72.9555 152.633 72.9555C150.669 72.9589 149.452 71.9163 149.452 70.3475ZM154.8 70.3475C154.8 69.2438 153.949 68.5851 152.633 68.5851C151.324 68.5851 150.474 69.2405 150.474 70.3475C150.474 71.4545 151.324 72.1031 152.633 72.1031C153.949 72.1031 154.8 71.4545 154.8 70.3475Z" fill="#010202" stroke="#010202" stroke-width="0.25" stroke-miterlimit="10"/>
<path d="M34.4044 21.0405C40.4031 21.0405 44.4239 23.7062 44.5987 27.6929H41.0681C40.8693 25.3464 38.4287 23.9507 34.4524 23.9507C30.2808 23.9507 27.4905 26.2735 27.4905 29.9919C27.4905 33.7103 30.2533 36.0059 34.401 36.0059C38.151 36.0059 41.0166 34.4913 41.4348 31.9479H31.813V29.4044H44.8695V38.5493H42.0073L42.2541 34.5864H42.0313C40.4511 37.7887 37.4654 38.9398 34.329 38.9398C28.1075 38.9398 23.9873 35.3708 23.9873 29.9919C23.9873 24.6129 28.135 21.0405 34.4044 21.0405Z" fill="black" stroke="#010202" stroke-width="0.25" stroke-miterlimit="10" stroke-linecap="round" stroke-linejoin="round"/>
<path d="M48.5215 21.4346H65.1806V24.3448H52.0281V28.087H63.7272V30.7764H52.0281V35.6189H65.184V38.5528H48.5249V21.4346H48.5215Z" fill="black" stroke="#010202" stroke-width="0.25" stroke-miterlimit="10" stroke-linecap="round" stroke-linejoin="round"/>
<path d="M68.8096 21.4346H71.994L84.9271 33.758V21.4346H88.4338V38.5494H85.2253L72.3162 26.2261V38.5494H68.8096V21.4346Z" fill="black" stroke="#010202" stroke-width="0.25" stroke-miterlimit="10" stroke-linecap="round" stroke-linejoin="round"/>
<path d="M98.3777 24.3448H90.7268V21.4346H109.559V24.3448H101.884V38.5528H98.3811V24.3448H98.3777Z" fill="black" stroke="#010202" stroke-width="0.25" stroke-miterlimit="10" stroke-linecap="round" stroke-linejoin="round"/>
<path d="M110.444 33.0481H114.098C114.074 34.8343 116.271 36.0059 119.873 36.0059C123.946 36.0059 126.191 35.2724 126.191 33.6594C126.191 29.0377 110.913 34.3929 110.913 26.4467C110.913 22.949 114.639 21.0439 119.997 21.0439C125.625 21.0439 129.327 23.3904 129.351 26.9357H125.773C125.773 25.1257 123.599 23.9542 120.096 23.9542C116.518 23.9542 114.468 24.6876 114.468 26.1546C114.468 30.4571 129.722 25.4687 129.722 33.5134C129.722 37.0823 125.896 38.9432 120.021 38.9432C114.122 38.9399 110.396 36.5458 110.444 33.0481Z" fill="black" stroke="#010202" stroke-width="0.25" stroke-miterlimit="10" stroke-linecap="round" stroke-linejoin="round"/>
<path d="M132.78 21.4346H149.439V24.3448H136.283V28.087H147.982V30.7764H136.283V35.6189H149.439V38.5528H132.78V21.4346Z" fill="black" stroke="#010202" stroke-width="0.25" stroke-miterlimit="10" stroke-linecap="round" stroke-linejoin="round"/>
<path d="M18.0405 44.1863H33.8873V47.0965H21.5472V50.9609H32.6773V53.6504H21.5472V61.3045H18.0405V44.1863Z" fill="black" stroke="#010202" stroke-width="0.25" stroke-miterlimit="10" stroke-linecap="round" stroke-linejoin="round"/>
<path d="M36.7495 44.1863H53.4086V47.0965H40.2562V50.8387H51.9553V53.5281H40.2562V58.3706H53.4121V61.3045H36.7495V44.1863Z" fill="black" stroke="#010202" stroke-width="0.25" stroke-miterlimit="10" stroke-linecap="round" stroke-linejoin="round"/>
<path d="M56.7915 44.1863H73.4506V47.0965H60.2947V50.8387H71.9938V53.5281H60.2947V58.3706H73.4506V61.3045H56.7915V44.1863Z" fill="black" stroke="#010202" stroke-width="0.25" stroke-miterlimit="10" stroke-linecap="round" stroke-linejoin="round"/>
<path d="M75.8684 55.8001H79.5224C79.4984 57.5863 81.6956 58.7578 85.2983 58.7578C89.3705 58.7578 91.6157 58.0243 91.6157 56.4113C91.6157 51.7896 76.338 57.1448 76.338 49.1986C76.338 45.7009 80.064 43.7959 85.4217 43.7959C91.0501 43.7959 94.7522 46.1424 94.7762 49.6876H91.1975C91.1975 47.8777 89.0243 46.7061 85.5211 46.7061C81.9424 46.7061 79.8926 47.4396 79.8926 48.9066C79.8926 53.2091 95.1464 48.2206 95.1464 56.2653C95.1464 59.8343 91.3209 61.6952 85.4457 61.6952C79.5464 61.6918 75.8204 59.2978 75.8684 55.8001Z" fill="black" stroke="#010202" stroke-width="0.25" stroke-miterlimit="10" stroke-linecap="round" stroke-linejoin="round"/>
<path d="M103.091 47.0965H95.4404V44.1863H114.273V47.0965H106.598V61.3045H103.095V47.0965H103.091Z" fill="black" stroke="#010202" stroke-width="0.25" stroke-miterlimit="10" stroke-linecap="round" stroke-linejoin="round"/>
<path d="M116.294 44.1863H132.953V47.0965H119.797V50.8387H131.496V53.5281H119.797V58.3706H132.953V61.3045H116.294V44.1863Z" fill="black" stroke="#010202" stroke-width="0.25" stroke-miterlimit="10" stroke-linecap="round" stroke-linejoin="round"/>
<path d="M136.333 44.1863H139.518L152.451 56.5097V44.1863H155.958V61.3011H152.749L139.84 48.9778V61.3011H136.333V44.1863Z" fill="black" stroke="#010202" stroke-width="0.25" stroke-miterlimit="10" stroke-linecap="round" stroke-linejoin="round"/>
</g>
<defs>
<clipPath id="clip0">
<rect width="138" height="52" fill="white" transform="translate(18 21)"/>
</clipPath>
</defs>
</svg>
